<svg xmlns="http://www.w3.org/2000/svg" viewBox="0 0 925.92 476.69"><defs><style>.cls-1{fill:#051218;}.cls-2{fill:#ed3e00;}.cls-3{fill:#73ada6;}</style></defs><g id="Layer_2" data-name="Layer 2"><g id="Layer_1-2" data-name="Layer 1"><path class="cls-1" d="M114,394.9a87.79,87.79,0,1,1,32.53-149.07l-23.2,25.83a53.07,53.07,0,1,0-19.69,90.1,52.58,52.58,0,0,0,15.23-7.58l20.29,28.17A87.6,87.6,0,0,1,114,394.9Z"/><path class="cls-1" d="M425.14,394.91V379.73q-14.72,17.2-34.28,17.2-17.31,0-28.1-10.68T352,356.69v-67.9h33.38v65.56q0,20.22,16.75,20.21a21,21,0,0,0,16.13-7.35q6.69-7.35,6.69-10.83V288.79h33.61V394.91Z"/><path class="cls-1" d="M572.68,362v21q-19.11,14-47.33,13.94-28,0-44.74-15t-16.75-39.78q0-24.3,15.74-39.95t40.13-15.64q24.51,0,40.19,16.47t14.67,44.12H498.37q1,14.44,10.23,22.23t24.73,7.79Q552.11,377.15,572.68,362ZM499.05,329.6h46.09q-2.7-23.16-23-23.16Q501.53,306.44,499.05,329.6Z"/><path class="cls-1" d="M612.52,288.79v15.06q14.73-17.31,34.51-17.31,16.53,0,27.6,10.58t11.07,30.27v67.52H652.32V330.19q0-21.29-16.53-21.28-11.81,0-23.27,17.54v68.46H579.14V288.79Z"/><path class="cls-1" d="M789.06,365.91v23.94q-19.56,7.08-35.86,7.08-28,0-44.74-15t-16.75-39.78q0-24.19,16.92-39.89t43.11-15.7q16.86,0,35.75,7v24.85q-13.83-7.1-27.21-7.09-14.94,0-23.94,8.34t-9,22.3q0,14.07,8.77,22.69t23,8.61Q769.72,373.21,789.06,365.91Z"/><path class="cls-1" d="M897.93,362v21q-19.12,14-47.33,13.94-28,0-44.74-15t-16.75-39.78q0-24.3,15.74-39.95T845,286.54q24.49,0,40.19,16.47t14.66,44.12H823.62q1,14.44,10.23,22.23t24.73,7.79Q877.36,377.15,897.93,362ZM824.29,329.6h46.09q-2.7-23.16-23-23.16Q826.76,306.44,824.29,329.6Z"/><path class="cls-1" d="M553.74,208.11C563,211,573.31,214.37,585,218.22c5.87,1.94,9.26-1.51,7.35-7.34C588.44,199.25,585,189,582.14,179.7c-1.43-4.7-7.6-9.57-13.25-11.07-11.25-3.06-20.8-5.72-29-8-4.11-1.12-6.35,1.08-5.22,5.22,2.3,8.25,5,17.79,8,29C544.2,200.49,549.07,206.68,553.74,208.11Z"/><path class="cls-2" d="M539.79,58.21c8.26-2.31,17.81-5,29-8,5.6-1.51,11.81-6.4,13.23-11.06,2.89-9.3,6.25-19.59,10.12-31.23C594.12,2,590.67-1.4,584.85.55c-11.64,3.85-21.92,7.24-31.2,10.13-4.65,1.45-9.58,7.63-11.08,13.25-3,11.26-5.71,20.81-8,29.07C533.46,57.12,535.67,59.32,539.79,58.21Z"/><path class="cls-2" d="M532,93.15c7.68-.89,16.82-2,27.86-3.15,5.53-.57,10.93-3.77,11.53-7.21,1.21-6.79,2.89-14,5.06-22,1.11-4-3-6.19-8.61-4.69-11.22,3-20.72,5.52-28.91,7.74-4.13,1.11-8,4.92-8.79,8.18-1.71,6.61-3,12.25-4,17.35C525.65,92,528.13,93.58,532,93.15Z"/><path class="cls-2" d="M531.73,121c7.67.77,16.78,1.65,27.79,2.67,5.53.57,10.26-1.65,10-4.87a120,120,0,0,1,0-18.86c.26-3.22-4.47-5.41-10-4.85-11,1-20.13,1.94-27.79,2.72-3.84.4-6.87,2.64-7.06,4.88a81.39,81.39,0,0,0,0,13.43C524.85,118.38,527.87,120.6,531.73,121Z"/><path class="cls-1" d="M479.3,68.2a80.42,80.42,0,0,0,13.44,0c2.22-.2,4.45-3.22,4.86-7.07.77-7.67,1.66-16.77,2.69-27.81.55-5.52-1.63-10.27-4.88-10a122.28,122.28,0,0,1-18.85,0c-3.22-.24-5.4,4.51-4.87,10,1.05,11,1.95,20.14,2.73,27.81C474.86,65,477,68,479.3,68.2Z"/><path class="cls-1" d="M474,195.58a123.56,123.56,0,0,1,18.85,0c3.22.25,5.38-4.49,4.85-10-1-11-1.92-20.11-2.71-27.78-.41-3.87-2.63-6.87-4.88-7.07a77.23,77.23,0,0,0-13.43,0c-2.25.18-4.46,3.2-4.87,7.07-.77,7.66-1.67,16.77-2.69,27.79C468.58,191.07,470.8,195.83,474,195.58Z"/><path class="cls-1" d="M510.06,197.44c6.76,1.19,14,2.87,21.92,5.05,4,1.07,6.21-3,4.71-8.6-3-11.23-5.52-20.73-7.73-28.91-1.14-4.14-4.91-8-8.2-8.81-6.61-1.71-12.24-3-17.35-4-2.52-.48-4.15,2-3.74,5.88.91,7.68,2,16.8,3.16,27.84C503.41,191.39,506.63,196.83,510.06,197.44Z"/><path class="cls-1" d="M448.68,62.71c6.6,1.71,12.24,3.05,17.33,4,2.54.46,4.18-2,3.73-5.87C468.85,53.15,467.8,44,466.6,33c-.55-5.49-3.78-11-7.22-11.55-6.79-1.2-14-2.89-21.94-5.05-4-1.1-6.19,3-4.69,8.6,2.94,11.23,5.54,20.73,7.73,28.93C441.62,58.05,445.41,61.86,448.68,62.71Z"/><path class="cls-1" d="M400.53,50.25c11.25,3.06,20.81,5.74,29.08,8,4.13,1.12,6.29-1.09,5.19-5.23-2.31-8.24-5-17.79-8-29-1.5-5.62-6.43-11.78-11.07-13.23C406.41,7.88,396.11,4.5,384.47.66c-5.82-1.94-9.3,1.49-7.33,7.34,3.87,11.63,7.24,21.92,10.14,31.19C388.75,43.87,394.89,48.75,400.53,50.25Z"/><path class="cls-3" d="M409.93,123.79c11-1,20.13-2,27.81-2.72,3.84-.43,6.83-2.64,7.06-4.89a80.42,80.42,0,0,0,0-13.44c-.23-2.25-3.19-4.47-7.06-4.86-7.66-.78-16.77-1.67-27.81-2.69-5.51-.55-10.26,1.65-10,4.85a120.33,120.33,0,0,1,0,18.89C399.68,122.14,404.39,124.34,409.93,123.79Z"/><path class="cls-3" d="M384.6,218.34c11.64-3.86,21.93-7.25,31.21-10.15,4.63-1.44,9.56-7.63,11.06-13.26,3-11.25,5.71-20.78,8-29.05,1.12-4.13-1.09-6.33-5.19-5.22-8.28,2.31-17.82,5-29.06,8.06-5.64,1.51-11.78,6.4-13.25,11.08-2.89,9.27-6.27,19.57-10.11,31.22C375.3,216.83,378.75,220.29,384.6,218.34Z"/><path class="cls-3" d="M401.61,162.72c11.22-2.95,20.71-5.52,28.92-7.73,4.12-1.12,7.9-4.89,8.77-8.19,1.73-6.59,3.05-12.23,4-17.34.47-2.53-2-4.15-5.86-3.73-7.69.91-16.81,2-27.85,3.15-5.51.57-11,3.79-11.56,7.22-1.21,6.79-2.89,14-5.05,22C391.9,162.06,396,164.24,401.61,162.72Z"/><path class="cls-2" d="M441.29,427.29v20.34H464.8V427.29h6.34V475.9H464.8V453.11H441.29V475.9h-6.35V427.29Z"/><path class="cls-2" d="M506,453.11H487.22v17.52h21.06v5.27H480.87V427.29h26.32v5.27h-20v15.36H506Z"/><path class="cls-2" d="M523.2,460.61l-5,15.29h-6.5l16.59-48.61h7.5l16.59,48.61h-6.71l-5.19-15.29Zm16-4.91-4.83-14c-1.08-3.17-1.8-6-2.52-8.87h-.15c-.72,2.82-1.44,5.85-2.45,8.8L524.5,455.7Z"/><path class="cls-2" d="M558.31,427.29h6.35v43.34h20.77v5.27H558.31Z"/><path class="cls-2" d="M600.57,432.63H585.79v-5.34h36v5.34H606.92V475.9h-6.35Z"/><path class="cls-2" d="M632.37,427.29v20.34h23.51V427.29h6.34V475.9h-6.34V453.11H632.37V475.9H626V427.29Z"/><path class="cls-2" d="M723.29,473.73a43.67,43.67,0,0,1-15,2.67c-7.36,0-13.42-1.88-18.18-6.42-4.18-4-6.78-10.52-6.78-18.1,0-14.49,10-25.09,26.33-25.09A30.45,30.45,0,0,1,721.85,429l-1.58,5.12a24.24,24.24,0,0,0-10.75-2.09c-11.82,0-19.54,7.36-19.54,19.54,0,12.33,7.36,19.62,18.75,19.62,4.11,0,6.92-.58,8.36-1.3v-14.5h-9.8v-5h16Z"/><path class="cls-2" d="M731.73,427.94a72.55,72.55,0,0,1,12-1c6.71,0,11.1,1.3,14.06,4a12.44,12.44,0,0,1,3.82,9.31c0,6.35-4,10.6-9.08,12.33v.22c3.68,1.3,5.91,4.76,7.06,9.81,1.59,6.77,2.75,11.46,3.75,13.34H756.9c-.8-1.45-1.88-5.56-3.18-11.61-1.44-6.71-4.11-9.23-9.81-9.45H738V475.9h-6.27ZM738,450.08h6.42c6.7,0,11-3.68,11-9.23,0-6.28-4.54-9-11.18-9a27.29,27.29,0,0,0-6.2.51Z"/><path class="cls-2" d="M811,451.09c0,16.66-10.17,25.6-22.57,25.6-12.91,0-21.86-10-21.86-24.74,0-15.43,9.52-25.52,22.51-25.52C802.39,426.43,811,436.59,811,451.09Zm-37.79.72c0,10.45,5.62,19.76,15.57,19.76s15.58-9.16,15.58-20.19c0-9.74-5.05-19.83-15.5-19.83S773.19,441.21,773.19,451.81Z"/><path class="cls-2" d="M824.31,427.29v28.85c0,10.81,4.84,15.43,11.32,15.43,7.14,0,11.83-4.76,11.83-15.43V427.29h6.35V455.7c0,14.93-7.86,21-18.39,21-9.95,0-17.45-5.63-17.45-20.77V427.29Z"/><path class="cls-2" d="M863.61,427.87a72.06,72.06,0,0,1,12-.94c6.2,0,10.75,1.44,13.63,4a13.3,13.3,0,0,1,4.25,10.17c0,4.4-1.29,7.86-3.75,10.38-3.38,3.54-8.72,5.34-14.85,5.34a22.17,22.17,0,0,1-5-.43V475.9h-6.27Zm6.27,23.43a20.55,20.55,0,0,0,5.19.51c7.58,0,12.19-3.75,12.19-10.31s-4.61-9.59-11.46-9.59a26.31,26.31,0,0,0-5.92.5Z"/><path class="cls-3" d="M318.15,381.14,311.94,374a89.39,89.39,0,0,0-5.2-121.79,92.62,92.62,0,0,0-111.07-14,92.75,92.75,0,0,0-18.9,14c-2.33,2.28-4.5,4.66-6.54,7.1-13.24,15.91-20.12,35.33-20.12,56.56a87.22,87.22,0,0,0,18.47,54.31,91.47,91.47,0,0,0,14.92,15.12,96,96,0,0,0,10.31,7.07A93.42,93.42,0,0,0,241.87,406a92.12,92.12,0,0,0,39.48-9L258.51,370.8a55,55,0,0,1-16.64,2.5c-32.91,0-54.05-25.46-54.05-57.41,0-31.71,22.1-57.65,54.05-57.65,31.47,0,53.81,25.94,53.81,57.65a62.25,62.25,0,0,1-7.74,30.62l-12.45-14.27-21.22,18.51,17.48,20.05L294.59,397l22.46,25.75,21.23-18.51Z"/><path class="cls-1" d="M910.58,282.93v1.18h-5.05v13.28h-1.37V284.11h-5v-1.18Z"/><path class="cls-1" d="M913.92,282.93l5,12.68,5-12.68h2v14.46h-1.37V284.9h0l-4.94,12.49h-1.3l-5-12.49h0v12.49h-1.38V282.93Z"/></g></g></svg>